<?xml version="1.0" encoding="utf-8"?>
<!-- Generator: Adobe Illustrator 16.0.0, SVG Export Plug-In . SVG Version: 6.00 Build 0)  -->
<!DOCTYPE svg PUBLIC "-//W3C//DTD SVG 1.1//EN" "http://www.w3.org/Graphics/SVG/1.1/DTD/svg11.dtd">
<svg version="1.1" id="Layer_1" xmlns="http://www.w3.org/2000/svg" xmlns:xlink="http://www.w3.org/1999/xlink" x="0px" y="0px"
	 width="363.6px" height="45.516px" viewBox="0 0 363.6 45.516" enable-background="new 0 0 363.6 45.516" xml:space="preserve">
<g>
	<g>
		<path fill="#009A44" d="M360.624,38.211c0.795,0,1.428,0.646,1.428,1.453c0,0.821-0.633,1.46-1.434,1.46
			c-0.795,0-1.441-0.639-1.441-1.46c0-0.807,0.646-1.453,1.441-1.453H360.624z M360.618,38.438c-0.641,0-1.164,0.549-1.164,1.227
			c0,0.691,0.523,1.234,1.17,1.234c0.646,0.007,1.162-0.543,1.162-1.227c0-0.686-0.516-1.234-1.162-1.234H360.618z M360.346,40.511
			h-0.26V38.89c0.137-0.02,0.266-0.039,0.459-0.039c0.246,0,0.408,0.053,0.504,0.123c0.098,0.07,0.148,0.181,0.148,0.336
			c0,0.212-0.141,0.343-0.316,0.394v0.014c0.143,0.025,0.24,0.154,0.271,0.394c0.039,0.252,0.078,0.349,0.104,0.4h-0.271
			c-0.039-0.052-0.078-0.2-0.109-0.413c-0.039-0.207-0.143-0.285-0.35-0.285h-0.18V40.511z M360.346,39.614h0.186
			c0.215,0,0.395-0.078,0.395-0.278c0-0.142-0.104-0.284-0.395-0.284c-0.084,0-0.141,0.007-0.186,0.013V39.614z"/>
	</g>
	<g>
		<path fill="#009A44" d="M81.041,38.211c0.795,0,1.428,0.646,1.428,1.453c0,0.821-0.633,1.46-1.434,1.46
			c-0.795,0-1.441-0.639-1.441-1.46c0-0.807,0.646-1.453,1.441-1.453H81.041z M81.035,38.438c-0.641,0-1.164,0.549-1.164,1.227
			c0,0.691,0.523,1.234,1.17,1.234c0.646,0.007,1.162-0.543,1.162-1.227c0-0.686-0.516-1.234-1.162-1.234H81.035z M80.763,40.511
			h-0.26V38.89c0.137-0.02,0.266-0.039,0.459-0.039c0.246,0,0.408,0.053,0.504,0.123c0.098,0.07,0.148,0.181,0.148,0.336
			c0,0.212-0.141,0.343-0.316,0.394v0.014c0.143,0.025,0.24,0.154,0.271,0.394c0.039,0.252,0.078,0.349,0.104,0.4h-0.271
			c-0.039-0.052-0.078-0.2-0.109-0.413c-0.039-0.207-0.143-0.285-0.35-0.285h-0.18V40.511z M80.763,39.614h0.186
			c0.215,0,0.395-0.078,0.395-0.278c0-0.142-0.104-0.284-0.395-0.284c-0.084,0-0.141,0.007-0.186,0.013V39.614z"/>
	</g>
	<g>
		<path fill="#009A44" stroke="#009A44" stroke-width="0.3517" stroke-miterlimit="10" d="M97.52,22.542v14.237
			c0.011,1.284,0.169,2.207,0.477,2.764c0.318,0.551,0.785,1.023,1.399,1.417h-6.354c0.659-0.415,1.152-0.943,1.481-1.58
			c0.253-0.516,0.385-1.382,0.396-2.601V21.703c-0.011-1.316-0.171-2.238-0.478-2.766c-0.33-0.56-0.796-1.03-1.399-1.415h5.218
			c0.099,0.242,0.385,0.68,0.856,1.316l13.167,16.788V21.703c-0.011-1.306-0.17-2.226-0.478-2.766
			c-0.329-0.56-0.796-1.03-1.399-1.415h6.354c-0.659,0.417-1.152,0.943-1.482,1.581c-0.253,0.504-0.385,1.37-0.395,2.6v20.409
			c-1.876-0.636-3.513-1.881-4.905-3.736L97.52,22.542z"/>
		<path fill="#009A44" stroke="#009A44" stroke-width="0.3517" stroke-miterlimit="10" d="M132.44,16.915
			c2.151,0,4.208,0.493,6.172,1.479c2.338,1.187,4.082,2.958,5.233,5.317c0.846,1.744,1.268,3.537,1.268,5.382
			c0,2.566-0.769,4.933-2.304,7.095c-1.371,1.931-3.192,3.368-5.465,4.311c-1.679,0.702-3.472,1.056-5.383,1.056
			c-3.084,0-5.788-0.877-8.113-2.634c-1.734-1.306-3.023-2.93-3.867-4.873c-0.658-1.491-0.989-3.055-0.989-4.691
			c0-2.347,0.643-4.542,1.927-6.583c1.219-1.952,2.956-3.451,5.217-4.493C128.078,17.368,130.179,16.915,132.44,16.915z
			 M131.929,19.481c-1.711,0-3.335,0.46-4.871,1.383c-1.405,0.855-2.464,2.084-3.177,3.687c-0.581,1.338-0.873,2.748-0.873,4.23
			c0,1.94,0.482,3.792,1.448,5.546c1.713,3.116,4.258,4.675,7.638,4.675c2.887,0,5.162-0.981,6.831-2.946
			c1.438-1.689,2.154-3.824,2.154-6.402c0-2.766-0.811-5.119-2.435-7.062C136.922,20.518,134.683,19.481,131.929,19.481z"/>
		<path fill="#009A44" stroke="#009A44" stroke-width="0.3517" stroke-miterlimit="10" d="M153.107,19.991v16.411
			c0,1.592,0.125,2.704,0.378,3.34c0.229,0.494,0.637,0.9,1.219,1.218h-6.765c0.624-0.328,1.053-0.789,1.282-1.384
			c0.209-0.646,0.315-1.704,0.315-3.174V22.081c0-1.59-0.127-2.704-0.381-3.341c-0.23-0.492-0.636-0.898-1.217-1.218h5.168
			c0.076,0.011,0.63,0,1.661-0.034c0.604-0.021,1.103-0.032,1.498-0.032c2.271,0,4.033,0.462,5.284,1.383
			c0.746,0.549,1.332,1.257,1.761,2.122c0.395,0.792,0.593,1.599,0.593,2.422c0,1.174-0.438,2.31-1.317,3.407
			c-1.098,1.338-2.59,2.243-4.477,2.715c1.207,1.657,2.808,3.68,4.806,6.072c2.173,2.603,4.203,4.396,6.09,5.383
			c-1.667,0.132-2.77,0.197-3.308,0.197c-1.142,0-2.15-0.336-3.028-1.003c-1.372-1.045-3.319-3.364-5.843-6.963
			c-0.967-1.383-1.921-2.857-2.864-4.428c3.972-0.691,5.958-2.395,5.958-5.118c0-1.174-0.434-2.141-1.301-2.896
			c-0.801-0.692-1.799-1.037-2.995-1.037C154.921,19.711,154.083,19.805,153.107,19.991z"/>
		<path fill="#009A44" stroke="#009A44" stroke-width="0.3517" stroke-miterlimit="10" d="M185.031,17.291l-1.169,4.214
			c-0.22-0.438-0.51-0.751-0.872-0.938c-0.505-0.264-1.317-0.395-2.437-0.395c-0.031,0-1.058,0.032-3.077,0.098v16.509
			c0.012,1.296,0.171,2.217,0.478,2.764c0.317,0.551,0.784,1.023,1.4,1.417h-7.028c0.623-0.328,1.047-0.789,1.267-1.384
			c0.218-0.635,0.329-1.694,0.329-3.174V20.27c-0.889-0.077-1.85-0.115-2.88-0.115c-1.449,0-2.569,0.187-3.358,0.561
			c-0.318,0.142-0.729,0.406-1.234,0.789l1.3-4.214c0.285,0.099,0.894,0.177,1.827,0.231h13.364
			C184.039,17.467,184.733,17.389,185.031,17.291z"/>
		<path fill="#009A44" stroke="#009A44" stroke-width="0.3517" stroke-miterlimit="10" d="M204.299,29.685h-12.84v6.717
			c0,1.592,0.128,2.704,0.379,3.34c0.229,0.494,0.637,0.9,1.218,1.218h-6.764c0.624-0.328,1.053-0.789,1.284-1.384
			c0.208-0.646,0.312-1.704,0.312-3.174V22.081c0-1.59-0.127-2.704-0.378-3.341c-0.231-0.492-0.635-0.898-1.218-1.218h6.764
			c-0.637,0.34-1.065,0.803-1.282,1.383c-0.209,0.649-0.314,1.707-0.314,3.176v4.872h12.84v-4.872c0-1.611-0.133-2.726-0.395-3.341
			c-0.232-0.504-0.631-0.91-1.201-1.218h6.746c-0.625,0.329-1.047,0.791-1.266,1.383c-0.221,0.649-0.332,1.707-0.332,3.176v14.321
			c0,1.613,0.133,2.727,0.396,3.34c0.221,0.505,0.619,0.91,1.201,1.218h-6.746c0.613-0.328,1.037-0.789,1.264-1.384
			c0.221-0.635,0.332-1.694,0.332-3.174V29.685z"/>
		<path fill="#009A44" stroke="#009A44" stroke-width="0.3517" stroke-miterlimit="10" d="M221.139,40.959
			c0.416-0.362,0.695-0.615,0.836-0.757c0.516-0.527,0.768-1.844,0.758-3.95V22.081c0-1.59-0.127-2.704-0.379-3.341
			c-0.232-0.492-0.635-0.898-1.215-1.218h3.57c0.525,0,1.316-0.006,2.367-0.018c1.076-0.021,1.992-0.032,2.752-0.032
			c2.314,0,4.223,0.285,5.727,0.856c2.412,0.933,4.289,2.371,5.631,4.312c1.26,1.856,1.893,3.978,1.893,6.369
			c0,3.633-1.344,6.63-4.035,8.988c-1.766,1.545-3.779,2.441-6.041,2.684c-1.625,0.186-3.658,0.278-6.105,0.278H221.139z
			 M226.305,38.046c0.889,0.176,1.771,0.263,2.648,0.263c2.842,0,5.033-0.524,6.566-1.579c2.439-1.678,3.654-4.13,3.654-7.357
			c0-1.733-0.377-3.353-1.135-4.855c-1.545-3.095-4.371-4.642-8.475-4.642c-0.979,0-2.064,0.13-3.26,0.395V38.046z"/>
		<path fill="#009A44" stroke="#009A44" stroke-width="0.3517" stroke-miterlimit="10" d="M258.192,32.137h-8.971l-2.039,5.432
			c-0.275,0.746-0.412,1.351-0.412,1.811c0,0.581,0.428,1.109,1.283,1.58h-6.535c0.629-0.383,1.143-0.806,1.549-1.267
			c0.363-0.438,0.643-0.872,0.84-1.301c0.164-0.34,0.473-1.082,0.922-2.222l6.254-15.636c0.273-0.671,0.412-1.207,0.412-1.613
			c0-0.583-0.363-1.049-1.086-1.399h5.693l7.457,18.648c0.568,1.404,1.002,2.319,1.299,2.749c0.604,0.878,1.318,1.559,2.141,2.04
			h-7.375c0.406-0.229,0.676-0.394,0.807-0.493c0.32-0.252,0.479-0.554,0.479-0.907c0-0.252-0.209-0.915-0.625-1.99L258.192,32.137z
			 M257.272,29.833l-3.588-9.299l-3.621,9.299H257.272z"/>
		<path fill="#009A44" stroke="#009A44" stroke-width="0.3517" stroke-miterlimit="10" d="M274.895,22.081v14.321
			c0,1.592,0.125,2.704,0.379,3.34c0.23,0.494,0.635,0.9,1.217,1.218h-6.766c0.627-0.328,1.055-0.789,1.285-1.384
			c0.209-0.646,0.312-1.704,0.312-3.174V22.081c0-1.59-0.125-2.704-0.379-3.341c-0.23-0.492-0.637-0.898-1.219-1.218h6.766
			c-0.637,0.34-1.064,0.803-1.283,1.383C274.999,19.554,274.895,20.612,274.895,22.081z M275.471,28.763l4.938-6.533
			c1.186-1.559,1.779-2.629,1.779-3.21c0-0.562-0.375-1.059-1.121-1.498h6.42l-8.197,10.517l0.709,0.954
			c2.564,3.459,4.234,5.686,5,6.683c1.066,1.338,1.934,2.306,2.604,2.898c0.723,0.647,1.778,1.442,3.159,2.386
			c-1.01,0.12-2.146,0.181-3.407,0.181c-1.471,0-2.645-0.423-3.523-1.267c-0.701-0.668-2.182-2.59-4.441-5.761
			C277.434,31.38,276.127,29.597,275.471,28.763z"/>
		<path fill="#009A44" stroke="#009A44" stroke-width="0.3517" stroke-miterlimit="10" d="M302.197,16.915
			c2.15,0,4.209,0.493,6.172,1.479c2.34,1.187,4.084,2.958,5.236,5.317c0.846,1.744,1.268,3.537,1.268,5.382
			c0,2.566-0.77,4.933-2.305,7.095c-1.373,1.931-3.193,3.368-5.465,4.311c-1.68,0.702-3.473,1.056-5.383,1.056
			c-3.084,0-5.787-0.877-8.113-2.634c-1.734-1.306-3.023-2.93-3.867-4.873c-0.66-1.491-0.99-3.055-0.99-4.691
			c0-2.347,0.645-4.542,1.928-6.583c1.219-1.952,2.955-3.451,5.217-4.493C297.837,17.368,299.937,16.915,302.197,16.915z
			 M301.687,19.481c-1.711,0-3.336,0.46-4.873,1.383c-1.404,0.855-2.461,2.084-3.176,3.687c-0.58,1.338-0.871,2.748-0.871,4.23
			c0,1.94,0.482,3.792,1.447,5.546c1.713,3.116,4.258,4.675,7.639,4.675c2.885,0,5.162-0.981,6.83-2.946
			c1.436-1.689,2.156-3.824,2.156-6.402c0-2.766-0.812-5.119-2.438-7.062C306.679,20.518,304.441,19.481,301.687,19.481z"/>
		<path fill="#009A44" stroke="#009A44" stroke-width="0.3517" stroke-miterlimit="10" d="M334.416,17.291l-1.168,4.214
			c-0.221-0.438-0.51-0.751-0.871-0.938c-0.506-0.264-1.318-0.395-2.438-0.395c-0.031,0-1.059,0.032-3.078,0.098v16.509
			c0.012,1.296,0.172,2.217,0.479,2.764c0.316,0.551,0.783,1.023,1.4,1.417h-7.031c0.629-0.328,1.049-0.789,1.268-1.384
			c0.221-0.635,0.33-1.694,0.33-3.174V20.27c-0.889-0.077-1.85-0.115-2.881-0.115c-1.447,0-2.566,0.187-3.355,0.561
			c-0.32,0.142-0.732,0.406-1.236,0.789l1.303-4.214c0.283,0.099,0.893,0.177,1.824,0.231h13.365
			C333.423,17.467,334.121,17.389,334.416,17.291z"/>
		<path fill="#009A44" stroke="#009A44" stroke-width="0.3517" stroke-miterlimit="10" d="M348.072,32.137h-8.971l-2.041,5.432
			c-0.275,0.746-0.412,1.351-0.412,1.811c0,0.581,0.428,1.109,1.283,1.58h-6.533c0.625-0.383,1.143-0.806,1.547-1.267
			c0.361-0.438,0.643-0.872,0.838-1.301c0.166-0.34,0.473-1.082,0.924-2.222l6.254-15.636c0.273-0.671,0.412-1.207,0.412-1.613
			c0-0.583-0.361-1.049-1.086-1.399h5.693l7.457,18.648c0.57,1.404,1.002,2.319,1.301,2.749c0.602,0.878,1.314,1.559,2.139,2.04
			h-7.373c0.404-0.229,0.674-0.394,0.807-0.493c0.318-0.252,0.475-0.554,0.475-0.907c0-0.252-0.205-0.915-0.623-1.99L348.072,32.137
			z M347.15,29.833l-3.588-9.299l-3.621,9.299H347.15z"/>
	</g>
	<g>
		<path fill="#009A44" d="M101.101,13.277v-0.992c-0.213,0.269-0.455,0.488-0.724,0.655c-0.621,0.38-1.322,0.569-2.104,0.569
			c-0.864,0-1.592-0.213-2.184-0.636c-0.542-0.387-0.893-0.927-1.051-1.613c-0.062-0.284-0.094-0.753-0.094-1.41V5.687
			c0-0.645-0.052-1.092-0.158-1.343c-0.088-0.203-0.249-0.365-0.483-0.489h2.713c-0.251,0.133-0.423,0.317-0.515,0.555
			c-0.085,0.262-0.127,0.688-0.127,1.277V9.85c0,0.502,0.038,0.873,0.113,1.11c0.146,0.473,0.425,0.844,0.84,1.113
			c0.396,0.255,0.855,0.383,1.376,0.383c0.622,0,1.165-0.182,1.628-0.542c0.31-0.242,0.519-0.517,0.629-0.821
			c0.066-0.185,0.1-0.436,0.1-0.754V5.687c0-0.645-0.054-1.092-0.158-1.343c-0.089-0.203-0.251-0.365-0.483-0.489h2.713
			c-0.251,0.133-0.424,0.317-0.516,0.555c-0.085,0.262-0.127,0.688-0.127,1.277v5.757c0,0.645,0.054,1.091,0.159,1.344
			c0.089,0.204,0.249,0.366,0.483,0.489H101.101z"/>
		<path fill="#009A44" d="M120.792,5.872v5.725c0.005,0.517,0.069,0.887,0.192,1.112c0.127,0.22,0.317,0.41,0.563,0.568h-2.557
			c0.267-0.169,0.466-0.379,0.598-0.636c0.102-0.206,0.154-0.555,0.157-1.045V5.535c-0.003-0.529-0.068-0.899-0.19-1.111
			c-0.132-0.225-0.32-0.414-0.564-0.568h2.101c0.037,0.097,0.153,0.274,0.344,0.527l5.293,6.751V5.535
			c-0.005-0.525-0.068-0.896-0.191-1.111c-0.133-0.225-0.32-0.414-0.564-0.568h2.556c-0.265,0.167-0.464,0.379-0.596,0.635
			c-0.101,0.202-0.155,0.552-0.158,1.045v8.206c-0.756-0.257-1.412-0.757-1.973-1.502L120.792,5.872z"/>
		<path fill="#009A44" d="M145.6,11.444V5.687c0-0.64-0.051-1.087-0.152-1.343c-0.091-0.198-0.256-0.361-0.488-0.489h2.719
			c-0.255,0.136-0.427,0.321-0.515,0.555c-0.085,0.262-0.128,0.688-0.128,1.277v5.757c0,0.641,0.053,1.088,0.152,1.344
			c0.093,0.199,0.256,0.362,0.49,0.489h-2.719c0.251-0.133,0.424-0.317,0.516-0.556C145.558,12.46,145.6,12.036,145.6,11.444z"/>
		<path fill="#009A44" d="M167.353,11.57l2.02-5.294c0.291-0.763,0.435-1.3,0.435-1.607c0-0.393-0.173-0.665-0.521-0.813h2.177
			l-3.831,9.84c-0.618-0.398-1.03-0.708-1.239-0.934c-0.136-0.154-0.261-0.367-0.376-0.636c-0.029-0.074-0.107-0.276-0.232-0.608
			l-1.925-5.241c-0.37-0.983-0.602-1.562-0.695-1.733c-0.158-0.277-0.344-0.507-0.555-0.688h2.083
			c-0.009,0.069-0.013,0.124-0.013,0.158c0,0.176,0.109,0.565,0.331,1.164L167.353,11.57z"/>
		<path fill="#009A44" d="M187.688,8.671v3.408c0.594,0.098,1.186,0.146,1.773,0.146c0.696,0,1.293-0.09,1.792-0.271
			c0.336-0.119,0.662-0.303,0.979-0.549l-0.655,1.872h-5.967c0.25-0.133,0.424-0.32,0.517-0.562
			c0.084-0.261,0.124-0.687,0.124-1.278v-5.75c0-0.645-0.049-1.092-0.151-1.343c-0.091-0.208-0.256-0.37-0.489-0.489h4.765
			c0.212,0,0.391-0.03,0.536-0.086v1.668c-0.207-0.204-0.414-0.343-0.623-0.418c-0.264-0.098-0.638-0.145-1.124-0.145
			c-0.613,0-1.106,0.028-1.476,0.092v2.68h1.911c0.186,0,0.349-0.03,0.491-0.092V9.07c-0.102-0.143-0.224-0.238-0.359-0.292
			c-0.184-0.07-0.442-0.106-0.774-0.106H187.688z"/>
		<path fill="#009A44" d="M208.036,4.847v6.597c0,0.641,0.051,1.088,0.152,1.344c0.092,0.199,0.254,0.362,0.488,0.489h-2.717
			c0.25-0.133,0.424-0.317,0.516-0.556c0.084-0.261,0.125-0.686,0.125-1.277V5.687c0-0.64-0.051-1.087-0.152-1.343
			c-0.092-0.198-0.254-0.361-0.488-0.489h2.076c0.031,0.003,0.254,0,0.67-0.014c0.24-0.01,0.441-0.014,0.6-0.014
			c0.912,0,1.621,0.186,2.125,0.555c0.301,0.222,0.537,0.507,0.709,0.854c0.156,0.317,0.236,0.643,0.236,0.973
			c0,0.473-0.176,0.929-0.527,1.37c-0.443,0.538-1.043,0.902-1.801,1.092c0.486,0.666,1.131,1.479,1.932,2.441
			c0.875,1.047,1.689,1.768,2.447,2.164c-0.67,0.053-1.109,0.079-1.328,0.079c-0.457,0-0.863-0.135-1.217-0.402
			c-0.553-0.419-1.334-1.353-2.35-2.799c-0.391-0.558-0.771-1.149-1.152-1.781c1.6-0.277,2.396-0.963,2.396-2.058
			c0-0.472-0.172-0.861-0.521-1.165c-0.324-0.276-0.725-0.417-1.205-0.417C208.766,4.734,208.43,4.771,208.036,4.847z"/>
		<path fill="#009A44" d="M233.94,3.934v1.628c-0.641-0.627-1.398-0.94-2.27-0.94c-0.641,0-1.141,0.161-1.504,0.482
			c-0.252,0.226-0.377,0.515-0.377,0.868c0,0.336,0.135,0.624,0.404,0.867c0.199,0.176,0.422,0.33,0.67,0.462
			c0.289,0.15,0.639,0.319,1.045,0.504c1.014,0.472,1.709,0.857,2.082,1.158c0.518,0.405,0.777,0.926,0.777,1.562
			c0,0.724-0.297,1.37-0.889,1.938c-0.732,0.703-1.727,1.054-2.984,1.054c-0.848,0-1.693-0.146-2.535-0.438l-0.422-1.786
			c0.936,0.765,1.98,1.146,3.137,1.146c0.639,0,1.17-0.159,1.592-0.476c0.363-0.273,0.545-0.605,0.545-0.993
			c0-0.402-0.158-0.738-0.477-1.013c-0.193-0.172-0.418-0.322-0.676-0.451c-0.32-0.162-0.705-0.348-1.15-0.555
			c-0.959-0.438-1.615-0.814-1.973-1.131c-0.492-0.446-0.74-1-0.74-1.662c0-0.44,0.127-0.859,0.383-1.257
			c0.287-0.445,0.738-0.779,1.35-0.999c0.531-0.19,1.137-0.285,1.82-0.285C232.467,3.616,233.198,3.722,233.94,3.934z"/>
		<path fill="#009A44" d="M250.26,11.444V5.687c0-0.64-0.051-1.087-0.152-1.343c-0.09-0.198-0.256-0.361-0.486-0.489h2.719
			c-0.256,0.136-0.43,0.321-0.518,0.555c-0.084,0.262-0.127,0.688-0.127,1.277v5.757c0,0.641,0.049,1.088,0.154,1.344
			c0.094,0.199,0.254,0.362,0.49,0.489h-2.719c0.25-0.133,0.422-0.317,0.514-0.556C250.219,12.46,250.26,12.036,250.26,11.444z"/>
		<path fill="#009A44" d="M271.157,11.596c0.006,0.52,0.066,0.892,0.193,1.112c0.127,0.22,0.312,0.41,0.561,0.568h-2.826
			c0.252-0.133,0.422-0.317,0.512-0.556c0.088-0.256,0.129-0.682,0.129-1.277V4.96c-0.354-0.033-0.74-0.048-1.154-0.048
			c-0.586,0-1.033,0.076-1.354,0.226c-0.127,0.057-0.291,0.163-0.492,0.316l0.52-1.692c0.115,0.04,0.361,0.069,0.736,0.093h5.371
			c0.441-0.023,0.723-0.053,0.844-0.093l-0.469,1.692c-0.09-0.175-0.209-0.302-0.354-0.376c-0.203-0.106-0.529-0.16-0.98-0.16
			c-0.012,0-0.424,0.015-1.236,0.042"/>
		<path fill="#009A44" d="M293.248,9.148v2.448c0.004,0.526,0.066,0.896,0.184,1.112c0.1,0.172,0.277,0.36,0.529,0.568h-2.746
			c0.244-0.172,0.406-0.356,0.477-0.556c0.084-0.265,0.125-0.691,0.125-1.277V9.148l-2.475-3.964
			c-0.264-0.423-0.479-0.717-0.641-0.88c-0.144-0.132-0.349-0.282-0.622-0.449l1.448-0.053c0.035,0,0.086,0,0.154,0
			c0.223,0,0.381,0.031,0.469,0.099c0.09,0.065,0.229,0.26,0.422,0.583l2.15,3.514l1.807-2.734c0.176-0.272,0.266-0.502,0.266-0.688
			c0-0.172-0.09-0.349-0.266-0.529c-0.072-0.079-0.16-0.142-0.258-0.19h2.484L293.248,9.148z"/>
		<path fill="#009A44" d="M325.281,3.609c0.863,0,1.689,0.199,2.48,0.596c0.938,0.477,1.643,1.188,2.104,2.138
			c0.34,0.701,0.51,1.423,0.51,2.164c0,1.033-0.309,1.983-0.926,2.853c-0.553,0.776-1.283,1.354-2.199,1.733
			c-0.674,0.281-1.393,0.424-2.164,0.424c-1.238,0-2.326-0.354-3.262-1.06c-0.697-0.525-1.215-1.177-1.553-1.958
			c-0.264-0.602-0.396-1.229-0.396-1.886c0-0.945,0.256-1.826,0.773-2.647c0.488-0.785,1.188-1.387,2.098-1.808
			C323.529,3.792,324.371,3.609,325.281,3.609z M325.074,4.641c-0.688,0-1.342,0.187-1.957,0.556
			c-0.566,0.344-0.99,0.839-1.277,1.482c-0.234,0.539-0.352,1.105-0.352,1.701c0,0.782,0.193,1.524,0.584,2.229
			c0.686,1.253,1.711,1.88,3.07,1.88c1.158,0,2.074-0.394,2.746-1.185c0.576-0.68,0.863-1.537,0.863-2.574
			c0-1.11-0.322-2.059-0.977-2.838C327.082,5.058,326.181,4.641,325.074,4.641z"/>
		<path fill="#009A44" d="M342.898,8.671v2.772c0,0.641,0.049,1.088,0.154,1.344c0.09,0.199,0.254,0.362,0.486,0.489h-2.719
			c0.252-0.133,0.426-0.317,0.516-0.556c0.086-0.261,0.127-0.686,0.127-1.277V5.687c0-0.64-0.049-1.087-0.152-1.343
			c-0.092-0.198-0.254-0.361-0.49-0.489h4.764c0.221,0,0.4-0.03,0.539-0.086v1.668c-0.207-0.2-0.416-0.338-0.623-0.418
			c-0.264-0.098-0.637-0.145-1.113-0.145c-0.613,0-1.109,0.028-1.488,0.092v2.68h1.912c0.184,0,0.35-0.03,0.49-0.092V9.07
			c-0.102-0.143-0.221-0.238-0.355-0.292c-0.191-0.07-0.449-0.106-0.775-0.106H342.898z"/>
	</g>
	<path fill="#009A44" d="M72.125,20.125c0,0,2.676,1.52,3.768,4.652c0.549,1.819,0.263,3.553-0.336,4.812
		c-0.129,0.27-0.272,0.532-0.428,0.786c-0.664,1.078-1.559,1.973-2.395,2.596c-1.217,0.983-2.361,1.418-3.692,1.875
		c-0.72,0.248-1.349,0.387-2.271,0.703c0.299-0.709,0.9-1.542,1.361-2.103c0.259-0.314,0.55-0.601,0.828-0.898
		c0.726-0.779,1.384-1.647,1.8-2.312c0.775-1.27,1.479-2.6,1.863-4.898c0.104-0.572,0.126-1.322,0.096-1.896
		C72.658,21.616,72.125,20.125,72.125,20.125z"/>
	<path fill="#009A44" d="M65.135,39.813c-0.6-0.646-1.392-1.658-1.851-2.515c-0.642-1.197-1.146-2.608-1.338-4.116
		c-0.17-1.34-0.087-2.774,0.292-3.957c0.812-2.551,2.983-4.079,4.274-6.401c0.523-0.968,0.89-2.073,1.003-3.194
		c0.104-1.069-0.089-2.293-0.589-3.361c-0.187-0.389-0.393-0.812-0.659-1.209c0,0,0.821,0.359,1.643,1.061
		c0.355,0.295,0.737,0.656,1.12,1.096c0.169,0.195,1.702,2.073,2.187,4.628c0.115,0.641,0.181,1.238,0.206,1.796
		c0.053,2.688-0.922,4.903-1.729,6.062c-0.354,0.509-0.718,1.008-1.134,1.468c-0.773,0.857-1.638,1.61-2.836,3.586
		c-0.133,0.234-0.328,0.639-0.396,0.855c-0.153,0.479-0.301,0.931-0.367,1.335c-0.138,0.836-0.076,1.5-0.019,1.983
		C65.011,39.504,65.135,39.812,65.135,39.813z"/>
	<path fill="#009A44" d="M87.046,21.419c0,5.67-2.095,10.344-6.296,14.031c-2.759,2.413-5.898,3.809-9.427,4.186
		c-1.064,0.126-2.375,0.146-3.321,0.139l-1.336-0.029c0,0-0.298-0.458-0.312-1.533c0.035-1.139,0.304-1.743,0.304-1.743
		c0.228,0.029,0.526,0.021,0.546,0.021c1.813-0.084,5.892-1.539,8.051-3.018c3.803-2.621,5.702-6.456,5.702-11.493
		c0-2.703-0.588-5.228-1.771-7.578c-2.419-4.832-6.827-7.245-13.235-7.245c-1.522,0-4.477,0.344-6.351,0.753l-0.005,33.913
		c-2.928-0.992-5.479-2.933-7.66-5.83L33.335,12.354v20.524c0,2.503,0.207,4.237,0.621,5.219c0.339,0.786,0.965,1.423,1.877,1.899
		H27.94V36.14c-0.822,1.047-1.756,1.894-2.802,2.546c-2.413,1.475-5.14,2.207-8.174,2.207c-3.358,0-6.186-0.816-8.477-2.46
		c-2.106-1.512-3.47-3.604-4.091-6.271c-0.237-1.1-0.355-2.924-0.355-5.476V10.518c0-2.498-0.207-4.238-0.615-5.214
		c-0.345-0.791-0.971-1.422-1.878-1.9h10.536c-0.977,0.51-1.645,1.231-2.006,2.154C9.755,6.571,9.59,8.227,9.59,10.518v16.169
		c0,1.953,0.144,3.391,0.436,4.317c0.567,1.832,1.655,3.273,3.263,4.313c1.544,0.999,3.326,1.492,5.348,1.492
		c2.419,0,4.523-0.699,6.323-2.106c1.198-0.943,2.011-2.007,2.439-3.188c0.26-0.717,0.387-1.692,0.387-2.929V10.518
		c0-2.498-0.206-4.238-0.614-5.214c-0.346-0.791-0.971-1.422-1.879-1.9l8.345,0.026c0.154,0.378,0.601,1.062,1.337,2.054
		l19.07,24.366V9.972c-0.021-2.036-0.246-4.199-0.776-5.014c-0.55-0.842-0.754-0.929-1.699-1.528c0,0,13.611-0.026,14.789-0.026
		c3.619,0,6.6,0.44,8.944,1.332c3.771,1.459,6.699,3.702,8.79,6.737C86.066,14.369,87.046,17.685,87.046,21.419z"/>
</g>
</svg>
